<svg 
 xmlns="http://www.w3.org/2000/svg"
 xmlns:xlink="http://www.w3.org/1999/xlink"
 width="29px" height="52px">
<path fill-rule="evenodd"  fill="rgb(255, 255, 255)"
 d="M11.499,4.499 L17.499,4.499 L17.499,6.499 L11.499,6.499 L11.499,4.499 ZM2.499,8.499 L26.499,8.499 L26.499,43.499 L2.499,43.499 L2.499,8.499 ZM11.499,47.499 C11.499,45.843 12.843,44.499 14.499,44.499 C16.156,44.499 17.499,45.843 17.499,47.499 C17.499,49.156 16.156,50.499 14.499,50.499 C12.843,50.499 11.499,49.156 11.499,47.499 ZM0.499,7.499 L0.499,44.499 C0.499,48.366 3.633,51.499 7.499,51.499 L21.499,51.499 C25.365,51.499 28.499,48.366 28.499,44.499 L28.499,7.499 C28.499,3.634 25.365,0.499 21.499,0.499 L7.499,0.499 C3.633,0.499 0.499,3.634 0.499,7.499 Z"/>
</svg>